<mxfile host="Electron" agent="Mozilla/5.0 (Macintosh; Intel Mac OS X 10_15_7) AppleWebKit/537.36 (KHTML, like Gecko) draw.io/25.0.2 Chrome/128.0.6613.186 Electron/32.2.5 Safari/537.36" version="25.0.2">
  <diagram name="Page-1" id="gr4mjay5CG8nxQREqHfE">
    <mxGraphModel dx="2233" dy="1795" grid="0" gridSize="10" guides="1" tooltips="1" connect="1" arrows="1" fold="1" page="0" pageScale="1" pageWidth="1169" pageHeight="827" math="0" shadow="0">
      <root>
        <mxCell id="0" />
        <mxCell id="1" parent="0" />
        <mxCell id="QuJYKHaPPU6A5Ewatb4S-3" style="edgeStyle=none;curved=1;rounded=0;orthogonalLoop=1;jettySize=auto;html=1;fontSize=12;startSize=8;endSize=8;" edge="1" parent="1" source="QuJYKHaPPU6A5Ewatb4S-1" target="QuJYKHaPPU6A5Ewatb4S-2">
          <mxGeometry relative="1" as="geometry" />
        </mxCell>
        <mxCell id="QuJYKHaPPU6A5Ewatb4S-1" value="" style="ellipse;fillColor=strokeColor;html=1;" vertex="1" parent="1">
          <mxGeometry x="-177" y="39.5" width="30" height="30" as="geometry" />
        </mxCell>
        <mxCell id="QuJYKHaPPU6A5Ewatb4S-33" style="edgeStyle=none;curved=1;rounded=0;orthogonalLoop=1;jettySize=auto;html=1;fontSize=12;startSize=8;endSize=8;" edge="1" parent="1" source="QuJYKHaPPU6A5Ewatb4S-2" target="QuJYKHaPPU6A5Ewatb4S-31">
          <mxGeometry relative="1" as="geometry" />
        </mxCell>
        <mxCell id="QuJYKHaPPU6A5Ewatb4S-44" style="edgeStyle=orthogonalEdgeStyle;rounded=0;orthogonalLoop=1;jettySize=auto;html=1;fontSize=12;startSize=8;endSize=8;" edge="1" parent="1" source="QuJYKHaPPU6A5Ewatb4S-2" target="QuJYKHaPPU6A5Ewatb4S-42">
          <mxGeometry relative="1" as="geometry">
            <Array as="points">
              <mxPoint x="-49" y="261" />
            </Array>
          </mxGeometry>
        </mxCell>
        <mxCell id="QuJYKHaPPU6A5Ewatb4S-56" style="edgeStyle=orthogonalEdgeStyle;shape=connector;rounded=0;orthogonalLoop=1;jettySize=auto;html=1;strokeColor=default;align=center;verticalAlign=middle;fontFamily=Helvetica;fontSize=12;fontColor=default;labelBackgroundColor=default;startSize=8;endArrow=classic;endSize=8;" edge="1" parent="1" source="QuJYKHaPPU6A5Ewatb4S-2" target="QuJYKHaPPU6A5Ewatb4S-54">
          <mxGeometry relative="1" as="geometry">
            <Array as="points">
              <mxPoint x="-49" y="-149" />
            </Array>
          </mxGeometry>
        </mxCell>
        <mxCell id="QuJYKHaPPU6A5Ewatb4S-2" value="" style="rhombus;whiteSpace=wrap;html=1;" vertex="1" parent="1">
          <mxGeometry x="-89" y="14.5" width="80" height="80" as="geometry" />
        </mxCell>
        <mxCell id="QuJYKHaPPU6A5Ewatb4S-30" value="" style="group" vertex="1" connectable="0" parent="1">
          <mxGeometry x="760" y="-185" width="641" height="479" as="geometry" />
        </mxCell>
        <mxCell id="QuJYKHaPPU6A5Ewatb4S-5" value="alt" style="shape=umlFrame;whiteSpace=wrap;html=1;fillColor=#f5f5f5;fontColor=#333333;strokeColor=#666666;" vertex="1" parent="QuJYKHaPPU6A5Ewatb4S-30">
          <mxGeometry x="120.65882352941176" y="162.3728813559322" width="467.5529411764706" height="267.91525423728814" as="geometry" />
        </mxCell>
        <mxCell id="QuJYKHaPPU6A5Ewatb4S-6" value=":Customer" style="shape=umlLifeline;participant=umlActor;perimeter=lifelinePerimeter;html=1;container=1;collapsible=0;recursiveResize=0;verticalAlign=top;spacingTop=36;outlineConnect=0;size=40;fillColor=#f8cecc;strokeColor=#b85450;" vertex="1" parent="QuJYKHaPPU6A5Ewatb4S-30">
          <mxGeometry x="67.87058823529412" y="32.474576271186436" width="15.08235294117647" height="430.2881355932203" as="geometry" />
        </mxCell>
        <mxCell id="QuJYKHaPPU6A5Ewatb4S-7" value="" style="html=1;points=[];perimeter=orthogonalPerimeter;fillColor=#f8cecc;strokeColor=#b85450;" vertex="1" parent="QuJYKHaPPU6A5Ewatb4S-6">
          <mxGeometry x="3.7705882352941176" y="56.83050847457627" width="7.541176470588235" height="340.9830508474576" as="geometry" />
        </mxCell>
        <mxCell id="QuJYKHaPPU6A5Ewatb4S-8" value=":SearchForm" style="shape=umlLifeline;perimeter=lifelinePerimeter;whiteSpace=wrap;html=1;container=1;collapsible=0;recursiveResize=0;outlineConnect=0;fillColor=#ffe6cc;strokeColor=#d79b00;" vertex="1" parent="QuJYKHaPPU6A5Ewatb4S-30">
          <mxGeometry x="173.44705882352943" y="40.59322033898305" width="75.41176470588236" height="422.1694915254237" as="geometry" />
        </mxCell>
        <mxCell id="QuJYKHaPPU6A5Ewatb4S-9" value="" style="html=1;points=[];perimeter=orthogonalPerimeter;fillColor=#ffe6cc;strokeColor=#d79b00;" vertex="1" parent="QuJYKHaPPU6A5Ewatb4S-8">
          <mxGeometry x="33.93529411764707" y="64.94915254237287" width="7.541176470588237" height="308.50847457627117" as="geometry" />
        </mxCell>
        <mxCell id="QuJYKHaPPU6A5Ewatb4S-10" value="" style="html=1;points=[];perimeter=orthogonalPerimeter;fillColor=#ffe6cc;strokeColor=#d79b00;" vertex="1" parent="QuJYKHaPPU6A5Ewatb4S-8">
          <mxGeometry x="37.70588235294118" y="89.30508474576271" width="7.541176470588237" height="32.474576271186436" as="geometry" />
        </mxCell>
        <mxCell id="QuJYKHaPPU6A5Ewatb4S-11" value="1.1: validSearch()" style="edgeStyle=orthogonalEdgeStyle;html=1;align=left;spacingLeft=2;endArrow=block;rounded=0;entryX=1;entryY=0;" edge="1" parent="QuJYKHaPPU6A5Ewatb4S-8" target="QuJYKHaPPU6A5Ewatb4S-10">
          <mxGeometry relative="1" as="geometry">
            <mxPoint x="41.4764705882353" y="81.1864406779661" as="sourcePoint" />
            <Array as="points">
              <mxPoint x="60.329411764705895" y="81.1864406779661" />
              <mxPoint x="60.329411764705895" y="89.30508474576271" />
            </Array>
          </mxGeometry>
        </mxCell>
        <mxCell id="QuJYKHaPPU6A5Ewatb4S-12" value="" style="html=1;points=[];perimeter=orthogonalPerimeter;fillColor=#ffe6cc;strokeColor=#d79b00;" vertex="1" parent="QuJYKHaPPU6A5Ewatb4S-8">
          <mxGeometry x="37.70588235294118" y="308.50847457627117" width="7.541176470588237" height="32.474576271186436" as="geometry" />
        </mxCell>
        <mxCell id="QuJYKHaPPU6A5Ewatb4S-13" value="1.3: displayError()" style="edgeStyle=orthogonalEdgeStyle;html=1;align=left;spacingLeft=2;endArrow=block;rounded=0;entryX=1;entryY=0;" edge="1" parent="QuJYKHaPPU6A5Ewatb4S-8" source="QuJYKHaPPU6A5Ewatb4S-9" target="QuJYKHaPPU6A5Ewatb4S-12">
          <mxGeometry relative="1" as="geometry">
            <mxPoint x="37.70588235294118" y="259.7966101694915" as="sourcePoint" />
            <Array as="points">
              <mxPoint x="60.329411764705895" y="300.3898305084746" />
              <mxPoint x="60.329411764705895" y="308.50847457627117" />
            </Array>
          </mxGeometry>
        </mxCell>
        <mxCell id="QuJYKHaPPU6A5Ewatb4S-14" value="1: itemSearch(itemName)" style="html=1;verticalAlign=bottom;endArrow=block;entryX=0;entryY=0;rounded=0;" edge="1" parent="QuJYKHaPPU6A5Ewatb4S-30" source="QuJYKHaPPU6A5Ewatb4S-7" target="QuJYKHaPPU6A5Ewatb4S-9">
          <mxGeometry relative="1" as="geometry">
            <mxPoint x="154.59411764705882" y="105.54237288135593" as="sourcePoint" />
          </mxGeometry>
        </mxCell>
        <mxCell id="QuJYKHaPPU6A5Ewatb4S-15" value=":SearchResults" style="shape=umlLifeline;perimeter=lifelinePerimeter;whiteSpace=wrap;html=1;container=1;collapsible=0;recursiveResize=0;outlineConnect=0;fillColor=#dae8fc;strokeColor=#6c8ebf;" vertex="1" parent="QuJYKHaPPU6A5Ewatb4S-30">
          <mxGeometry x="339.3529411764706" y="40.59322033898305" width="75.41176470588236" height="422.1694915254237" as="geometry" />
        </mxCell>
        <mxCell id="QuJYKHaPPU6A5Ewatb4S-16" value="" style="html=1;points=[];perimeter=orthogonalPerimeter;fillColor=#dae8fc;strokeColor=#6c8ebf;" vertex="1" parent="QuJYKHaPPU6A5Ewatb4S-15">
          <mxGeometry x="33.93529411764707" y="202.96610169491524" width="7.541176470588237" height="16.237288135593218" as="geometry" />
        </mxCell>
        <mxCell id="QuJYKHaPPU6A5Ewatb4S-17" value=":ItemDatabase" style="shape=umlLifeline;participant=umlEntity;perimeter=lifelinePerimeter;whiteSpace=wrap;html=1;container=1;collapsible=0;recursiveResize=0;verticalAlign=top;spacingTop=36;outlineConnect=0;fillColor=#e1d5e7;strokeColor=#9673a6;" vertex="1" parent="QuJYKHaPPU6A5Ewatb4S-30">
          <mxGeometry x="467.5529411764706" y="40.59322033898305" width="30.16470588235294" height="422.1694915254237" as="geometry" />
        </mxCell>
        <mxCell id="QuJYKHaPPU6A5Ewatb4S-18" value="" style="html=1;points=[];perimeter=orthogonalPerimeter;fillColor=#e1d5e7;strokeColor=#9673a6;" vertex="1" parent="QuJYKHaPPU6A5Ewatb4S-17">
          <mxGeometry x="11.311764705882354" y="146.135593220339" width="7.541176470588235" height="32.474576271186436" as="geometry" />
        </mxCell>
        <mxCell id="QuJYKHaPPU6A5Ewatb4S-19" value=":ResultList" style="shape=umlLifeline;perimeter=lifelinePerimeter;whiteSpace=wrap;html=1;container=1;collapsible=0;recursiveResize=0;outlineConnect=0;fillColor=#d5e8d4;strokeColor=#82b366;" vertex="1" parent="QuJYKHaPPU6A5Ewatb4S-30">
          <mxGeometry x="527.8823529411765" y="97.42372881355932" width="75.41176470588236" height="178.61016949152543" as="geometry" />
        </mxCell>
        <mxCell id="QuJYKHaPPU6A5Ewatb4S-20" value="" style="shape=umlDestroy;whiteSpace=wrap;html=1;strokeWidth=3;" vertex="1" parent="QuJYKHaPPU6A5Ewatb4S-19">
          <mxGeometry x="26.394117647058827" y="162.3728813559322" width="22.62352941176471" height="24.35593220338983" as="geometry" />
        </mxCell>
        <mxCell id="QuJYKHaPPU6A5Ewatb4S-21" value="" style="html=1;points=[];perimeter=orthogonalPerimeter;fillColor=#d5e8d4;strokeColor=#82b366;" vertex="1" parent="QuJYKHaPPU6A5Ewatb4S-19">
          <mxGeometry x="33.93529411764707" y="93.36440677966101" width="7.541176470588237" height="52.771186440677965" as="geometry" />
        </mxCell>
        <mxCell id="QuJYKHaPPU6A5Ewatb4S-22" value="1.2: SearchItems(itemName)" style="html=1;verticalAlign=bottom;endArrow=block;entryX=0;entryY=0;rounded=0;" edge="1" parent="QuJYKHaPPU6A5Ewatb4S-30" source="QuJYKHaPPU6A5Ewatb4S-9" target="QuJYKHaPPU6A5Ewatb4S-18">
          <mxGeometry relative="1" as="geometry">
            <mxPoint x="429.84705882352944" y="129.89830508474574" as="sourcePoint" />
          </mxGeometry>
        </mxCell>
        <mxCell id="QuJYKHaPPU6A5Ewatb4S-23" value="1.2.1: listResults()" style="html=1;verticalAlign=bottom;endArrow=block;entryX=0;entryY=0;rounded=0;" edge="1" parent="QuJYKHaPPU6A5Ewatb4S-30" source="QuJYKHaPPU6A5Ewatb4S-18" target="QuJYKHaPPU6A5Ewatb4S-21">
          <mxGeometry relative="1" as="geometry">
            <mxPoint x="514.3082352941177" y="198.90677966101694" as="sourcePoint" />
          </mxGeometry>
        </mxCell>
        <mxCell id="QuJYKHaPPU6A5Ewatb4S-24" value="1.2.1.1: displayResults()" style="html=1;verticalAlign=bottom;endArrow=block;entryX=1;entryY=0;rounded=0;" edge="1" parent="QuJYKHaPPU6A5Ewatb4S-30" source="QuJYKHaPPU6A5Ewatb4S-21" target="QuJYKHaPPU6A5Ewatb4S-16">
          <mxGeometry relative="1" as="geometry">
            <mxPoint x="429.84705882352944" y="227.32203389830508" as="sourcePoint" />
            <Array as="points">
              <mxPoint x="429.84705882352944" y="243.5593220338983" />
            </Array>
          </mxGeometry>
        </mxCell>
        <mxCell id="QuJYKHaPPU6A5Ewatb4S-25" value="" style="endArrow=none;dashed=1;html=1;rounded=0;entryX=1;entryY=0.576;entryDx=0;entryDy=0;entryPerimeter=0;exitX=0;exitY=0.573;exitDx=0;exitDy=0;exitPerimeter=0;" edge="1" parent="QuJYKHaPPU6A5Ewatb4S-30" source="QuJYKHaPPU6A5Ewatb4S-5" target="QuJYKHaPPU6A5Ewatb4S-5">
          <mxGeometry width="50" height="50" relative="1" as="geometry">
            <mxPoint x="279.02352941176474" y="276.03389830508473" as="sourcePoint" />
            <mxPoint x="316.7294117647059" y="235.44067796610167" as="targetPoint" />
          </mxGeometry>
        </mxCell>
        <mxCell id="QuJYKHaPPU6A5Ewatb4S-26" value="[itemName=valid]" style="text;html=1;align=center;verticalAlign=middle;resizable=0;points=[];autosize=1;strokeColor=none;fillColor=none;" vertex="1" parent="QuJYKHaPPU6A5Ewatb4S-30">
          <mxGeometry x="120.65882352941176" y="186.72881355932202" width="110" height="20" as="geometry" />
        </mxCell>
        <mxCell id="QuJYKHaPPU6A5Ewatb4S-27" value="[else]" style="text;html=1;align=center;verticalAlign=middle;resizable=0;points=[];autosize=1;strokeColor=none;fillColor=none;" vertex="1" parent="QuJYKHaPPU6A5Ewatb4S-30">
          <mxGeometry x="120.65882352941176" y="316.62711864406776" width="40" height="20" as="geometry" />
        </mxCell>
        <mxCell id="QuJYKHaPPU6A5Ewatb4S-28" style="edgeStyle=none;rounded=0;orthogonalLoop=1;jettySize=auto;html=1;endArrow=open;endFill=0;dashed=1;" edge="1" parent="QuJYKHaPPU6A5Ewatb4S-30" source="QuJYKHaPPU6A5Ewatb4S-9" target="QuJYKHaPPU6A5Ewatb4S-7">
          <mxGeometry relative="1" as="geometry">
            <Array as="points">
              <mxPoint x="143.28235294117647" y="405.9322033898305" />
            </Array>
          </mxGeometry>
        </mxCell>
        <mxCell id="QuJYKHaPPU6A5Ewatb4S-29" value="sd searchForItems" style="shape=umlFrame;whiteSpace=wrap;html=1;width=120;height=30;boundedLbl=1;verticalAlign=middle;align=left;spacingLeft=5;fillColor=#f5f5f5;fontColor=#333333;strokeColor=#666666;" vertex="1" parent="QuJYKHaPPU6A5Ewatb4S-30">
          <mxGeometry width="641" height="479" as="geometry" />
        </mxCell>
        <mxCell id="QuJYKHaPPU6A5Ewatb4S-35" style="edgeStyle=none;curved=1;rounded=0;orthogonalLoop=1;jettySize=auto;html=1;fontSize=12;startSize=8;endSize=8;" edge="1" parent="1" source="QuJYKHaPPU6A5Ewatb4S-31" target="QuJYKHaPPU6A5Ewatb4S-34">
          <mxGeometry relative="1" as="geometry" />
        </mxCell>
        <mxCell id="QuJYKHaPPU6A5Ewatb4S-31" value="Ref" style="shape=umlFrame;whiteSpace=wrap;html=1;pointerEvents=0;recursiveResize=0;container=1;collapsible=0;width=50;" vertex="1" parent="1">
          <mxGeometry x="68" y="-5.5" width="260" height="120" as="geometry" />
        </mxCell>
        <mxCell id="QuJYKHaPPU6A5Ewatb4S-32" value="useCatalog" style="text;align=center;html=1;fontSize=16;" vertex="1" parent="QuJYKHaPPU6A5Ewatb4S-31">
          <mxGeometry width="100" height="20" relative="1" as="geometry">
            <mxPoint x="60" y="50" as="offset" />
          </mxGeometry>
        </mxCell>
        <mxCell id="QuJYKHaPPU6A5Ewatb4S-36" style="edgeStyle=none;curved=1;rounded=0;orthogonalLoop=1;jettySize=auto;html=1;fontSize=12;startSize=8;endSize=8;" edge="1" parent="1" source="QuJYKHaPPU6A5Ewatb4S-34" target="QuJYKHaPPU6A5Ewatb4S-29">
          <mxGeometry relative="1" as="geometry" />
        </mxCell>
        <mxCell id="QuJYKHaPPU6A5Ewatb4S-37" value="[validLibraryMember]" style="edgeLabel;html=1;align=center;verticalAlign=middle;resizable=0;points=[];fontSize=12;" vertex="1" connectable="0" parent="QuJYKHaPPU6A5Ewatb4S-36">
          <mxGeometry x="-0.5582" y="1" relative="1" as="geometry">
            <mxPoint x="36" y="-12" as="offset" />
          </mxGeometry>
        </mxCell>
        <mxCell id="QuJYKHaPPU6A5Ewatb4S-34" value="" style="rhombus;whiteSpace=wrap;html=1;" vertex="1" parent="1">
          <mxGeometry x="435" y="14.5" width="80" height="80" as="geometry" />
        </mxCell>
        <mxCell id="QuJYKHaPPU6A5Ewatb4S-59" style="edgeStyle=orthogonalEdgeStyle;shape=connector;rounded=0;orthogonalLoop=1;jettySize=auto;html=1;entryX=0.5;entryY=1;entryDx=0;entryDy=0;strokeColor=default;align=center;verticalAlign=middle;fontFamily=Helvetica;fontSize=12;fontColor=default;labelBackgroundColor=default;startSize=8;endArrow=classic;endSize=8;" edge="1" parent="1" source="QuJYKHaPPU6A5Ewatb4S-38" target="QuJYKHaPPU6A5Ewatb4S-57">
          <mxGeometry relative="1" as="geometry">
            <Array as="points">
              <mxPoint x="900" y="546" />
              <mxPoint x="1625" y="546" />
            </Array>
          </mxGeometry>
        </mxCell>
        <mxCell id="QuJYKHaPPU6A5Ewatb4S-38" value="Ref" style="shape=umlFrame;whiteSpace=wrap;html=1;pointerEvents=0;recursiveResize=0;container=1;collapsible=0;width=50;" vertex="1" parent="1">
          <mxGeometry x="770" y="387" width="260" height="120" as="geometry" />
        </mxCell>
        <mxCell id="QuJYKHaPPU6A5Ewatb4S-39" value="borrowBook" style="text;align=center;html=1;fontSize=16;" vertex="1" parent="QuJYKHaPPU6A5Ewatb4S-38">
          <mxGeometry width="100" height="20" relative="1" as="geometry">
            <mxPoint x="60" y="50" as="offset" />
          </mxGeometry>
        </mxCell>
        <mxCell id="QuJYKHaPPU6A5Ewatb4S-41" style="edgeStyle=orthogonalEdgeStyle;rounded=0;orthogonalLoop=1;jettySize=auto;html=1;fontSize=12;startSize=8;endSize=8;" edge="1" parent="1" source="QuJYKHaPPU6A5Ewatb4S-29" target="QuJYKHaPPU6A5Ewatb4S-38">
          <mxGeometry relative="1" as="geometry">
            <Array as="points">
              <mxPoint x="1081" y="447" />
            </Array>
          </mxGeometry>
        </mxCell>
        <mxCell id="QuJYKHaPPU6A5Ewatb4S-45" style="edgeStyle=none;curved=1;rounded=0;orthogonalLoop=1;jettySize=auto;html=1;fontSize=12;startSize=8;endSize=8;" edge="1" parent="1" source="QuJYKHaPPU6A5Ewatb4S-42" target="QuJYKHaPPU6A5Ewatb4S-46">
          <mxGeometry relative="1" as="geometry">
            <mxPoint x="435" y="417" as="targetPoint" />
          </mxGeometry>
        </mxCell>
        <mxCell id="QuJYKHaPPU6A5Ewatb4S-60" style="edgeStyle=orthogonalEdgeStyle;shape=connector;rounded=0;orthogonalLoop=1;jettySize=auto;html=1;entryX=0.5;entryY=1;entryDx=0;entryDy=0;strokeColor=default;align=center;verticalAlign=middle;fontFamily=Helvetica;fontSize=12;fontColor=default;labelBackgroundColor=default;startSize=8;endArrow=classic;endSize=8;jumpStyle=arc;" edge="1" parent="1" source="QuJYKHaPPU6A5Ewatb4S-42" target="QuJYKHaPPU6A5Ewatb4S-57">
          <mxGeometry relative="1" as="geometry">
            <Array as="points">
              <mxPoint x="480" y="261" />
              <mxPoint x="480" y="344" />
              <mxPoint x="1625" y="344" />
            </Array>
          </mxGeometry>
        </mxCell>
        <mxCell id="QuJYKHaPPU6A5Ewatb4S-42" value="Ref" style="shape=umlFrame;whiteSpace=wrap;html=1;pointerEvents=0;recursiveResize=0;container=1;collapsible=0;width=50;" vertex="1" parent="1">
          <mxGeometry x="68" y="201" width="260" height="120" as="geometry" />
        </mxCell>
        <mxCell id="QuJYKHaPPU6A5Ewatb4S-43" value="browseShelves" style="text;align=center;html=1;fontSize=16;" vertex="1" parent="QuJYKHaPPU6A5Ewatb4S-42">
          <mxGeometry width="100" height="20" relative="1" as="geometry">
            <mxPoint x="60" y="50" as="offset" />
          </mxGeometry>
        </mxCell>
        <mxCell id="QuJYKHaPPU6A5Ewatb4S-47" style="edgeStyle=orthogonalEdgeStyle;rounded=0;orthogonalLoop=1;jettySize=auto;html=1;fontSize=12;startSize=8;endSize=8;" edge="1" parent="1" source="QuJYKHaPPU6A5Ewatb4S-46" target="QuJYKHaPPU6A5Ewatb4S-38">
          <mxGeometry relative="1" as="geometry" />
        </mxCell>
        <mxCell id="QuJYKHaPPU6A5Ewatb4S-49" value="[validLibraryMember]" style="edgeLabel;html=1;align=center;verticalAlign=middle;resizable=0;points=[];fontSize=12;fontFamily=Helvetica;fontColor=default;labelBackgroundColor=default;" vertex="1" connectable="0" parent="QuJYKHaPPU6A5Ewatb4S-47">
          <mxGeometry x="-0.669" y="1" relative="1" as="geometry">
            <mxPoint x="8" y="-14" as="offset" />
          </mxGeometry>
        </mxCell>
        <mxCell id="QuJYKHaPPU6A5Ewatb4S-52" style="edgeStyle=orthogonalEdgeStyle;shape=connector;rounded=0;orthogonalLoop=1;jettySize=auto;html=1;strokeColor=default;align=center;verticalAlign=middle;fontFamily=Helvetica;fontSize=12;fontColor=default;labelBackgroundColor=default;startSize=8;endArrow=classic;endSize=8;" edge="1" parent="1" source="QuJYKHaPPU6A5Ewatb4S-46" target="QuJYKHaPPU6A5Ewatb4S-50">
          <mxGeometry relative="1" as="geometry" />
        </mxCell>
        <mxCell id="QuJYKHaPPU6A5Ewatb4S-46" value="" style="rhombus;whiteSpace=wrap;html=1;" vertex="1" parent="1">
          <mxGeometry x="158" y="407" width="80" height="80" as="geometry" />
        </mxCell>
        <mxCell id="QuJYKHaPPU6A5Ewatb4S-53" style="edgeStyle=orthogonalEdgeStyle;shape=connector;rounded=0;orthogonalLoop=1;jettySize=auto;html=1;strokeColor=default;align=center;verticalAlign=middle;fontFamily=Helvetica;fontSize=12;fontColor=default;labelBackgroundColor=default;startSize=8;endArrow=classic;endSize=8;entryX=0;entryY=0.5;entryDx=0;entryDy=0;" edge="1" parent="1" source="QuJYKHaPPU6A5Ewatb4S-50" target="QuJYKHaPPU6A5Ewatb4S-46">
          <mxGeometry relative="1" as="geometry">
            <Array as="points">
              <mxPoint x="17" y="689" />
              <mxPoint x="17" y="447" />
            </Array>
          </mxGeometry>
        </mxCell>
        <mxCell id="QuJYKHaPPU6A5Ewatb4S-50" value="Ref" style="shape=umlFrame;whiteSpace=wrap;html=1;pointerEvents=0;recursiveResize=0;container=1;collapsible=0;width=50;fontFamily=Helvetica;fontSize=12;fontColor=default;labelBackgroundColor=default;" vertex="1" parent="1">
          <mxGeometry x="68" y="629" width="260" height="120" as="geometry" />
        </mxCell>
        <mxCell id="QuJYKHaPPU6A5Ewatb4S-51" value="registerLibraryMember" style="text;align=center;html=1;fontFamily=Helvetica;fontSize=16;fontColor=default;labelBackgroundColor=default;" vertex="1" parent="QuJYKHaPPU6A5Ewatb4S-50">
          <mxGeometry width="100" height="20" relative="1" as="geometry">
            <mxPoint x="60" y="50" as="offset" />
          </mxGeometry>
        </mxCell>
        <mxCell id="QuJYKHaPPU6A5Ewatb4S-58" style="edgeStyle=orthogonalEdgeStyle;shape=connector;rounded=0;orthogonalLoop=1;jettySize=auto;html=1;entryX=0.5;entryY=0;entryDx=0;entryDy=0;strokeColor=default;align=center;verticalAlign=middle;fontFamily=Helvetica;fontSize=12;fontColor=default;labelBackgroundColor=default;startSize=8;endArrow=classic;endSize=8;" edge="1" parent="1" source="QuJYKHaPPU6A5Ewatb4S-54" target="QuJYKHaPPU6A5Ewatb4S-57">
          <mxGeometry relative="1" as="geometry">
            <Array as="points">
              <mxPoint x="479" y="-149" />
              <mxPoint x="479" y="-237" />
              <mxPoint x="1625" y="-237" />
            </Array>
          </mxGeometry>
        </mxCell>
        <mxCell id="QuJYKHaPPU6A5Ewatb4S-54" value="Ref" style="shape=umlFrame;whiteSpace=wrap;html=1;pointerEvents=0;recursiveResize=0;container=1;collapsible=0;width=50;fontFamily=Helvetica;fontSize=12;fontColor=default;labelBackgroundColor=default;" vertex="1" parent="1">
          <mxGeometry x="68" y="-209" width="260" height="120" as="geometry" />
        </mxCell>
        <mxCell id="QuJYKHaPPU6A5Ewatb4S-55" value="attendEvent" style="text;align=center;html=1;fontFamily=Helvetica;fontSize=16;fontColor=default;labelBackgroundColor=default;" vertex="1" parent="QuJYKHaPPU6A5Ewatb4S-54">
          <mxGeometry width="100" height="20" relative="1" as="geometry">
            <mxPoint x="60" y="50" as="offset" />
          </mxGeometry>
        </mxCell>
        <mxCell id="QuJYKHaPPU6A5Ewatb4S-57" value="" style="ellipse;html=1;shape=endState;fillColor=strokeColor;fontFamily=Helvetica;fontSize=12;fontColor=default;labelBackgroundColor=default;" vertex="1" parent="1">
          <mxGeometry x="1610" y="39.5" width="30" height="30" as="geometry" />
        </mxCell>
        <mxCell id="QuJYKHaPPU6A5Ewatb4S-64" value="Interaction useLibrary" style="shape=umlFrame;whiteSpace=wrap;html=1;pointerEvents=0;recursiveResize=0;container=1;collapsible=0;width=170;fontFamily=Helvetica;fontSize=12;fontColor=default;labelBackgroundColor=default;fontStyle=1" vertex="1" parent="1">
          <mxGeometry x="-215" y="-273" width="1881" height="1041" as="geometry" />
        </mxCell>
      </root>
    </mxGraphModel>
  </diagram>
</mxfile>
